<mxfile host="app.diagrams.net" modified="2023-05-17T05:42:00.498Z" agent="Mozilla/5.0 (Windows NT 10.0; Win64; x64) AppleWebKit/537.36 (KHTML, like Gecko) Chrome/113.0.0.0 Safari/537.36" version="21.3.2" etag="n6MdgqnBbreTIrxdxorb" type="github">
  <diagram name="Page-1" id="zJ9mpb9FcX2JbpjDQztF">
    <mxGraphModel>
      <root>
        <mxCell id="0" />
        <mxCell id="1" parent="0" />
      </root>
    </mxGraphModel>
  </diagram>
</mxfile>
